<svg xmlns="http://www.w3.org/2000/svg" xml:space="preserve" width="128" height="128" viewBox="0 0 33.867 33.867"><g style="display:inline"><ellipse cx="8.57" cy="16.314" rx="4.756" ry="10.989" style="display:inline;fill:#b3b3b3;stroke:#000;stroke-width:.264589" transform="matrix(.98642 .16422 -.17324 .98488 0 0)"/><ellipse cx="-24.67" cy="21.831" rx="4.756" ry="10.989" style="fill:#b3b3b3;stroke:#000;stroke-width:.264589" transform="matrix(-.98642 .16422 .17324 .98488 0 0)"/><g style="display:inline"><path d="M9.128 7.673h15.478v12.965H9.128z" style="fill:#b3b3b3;stroke:#000;stroke-width:.264583"/><path d="M8.467 7.937h16.669v12.435H8.467z" style="display:inline;fill:#b3b3b3;stroke:#b3b3b3;stroke-width:.264583"/><ellipse cx="16.714" cy="13.826" rx="7.919" ry="5.69" style="display:inline;fill:#e0e0e0;stroke:#e0e0e0;stroke-width:.332827"/><path d="M8.971 8.586h15.638v1.137H8.971z" style="display:inline;fill:#e0e0e0;stroke:#e0e0e0;stroke-width:.175088"/><path d="M13.034 7.891h7.233v4.681h-7.233z" style="display:inline;fill:#b3b3b3;stroke:#b3b3b3;stroke-width:.175088"/></g><ellipse cx="8.282" cy="16.812" rx="3.622" ry="9.009" style="display:inline;fill:#e0e0e0;stroke:#b3b3b3;stroke-width:.217676" transform="matrix(.98418 .17717 -.16057 .98702 0 0)"/><ellipse cx="-24.99" cy="22.683" rx="3.615" ry="9.024" style="display:inline;fill:#e0e0e0;stroke:#b3b3b3;stroke-width:.217677" transform="matrix(-.98406 .17784 .15996 .98712 0 0)"/><ellipse cx="7.323" cy="12.635" rx="4.354" ry="4.407" style="display:inline;fill:#b3b3b3;stroke:#b3b3b3;stroke-width:.279804"/><ellipse cx="26.18" cy="12.716" rx="4.372" ry="4.43" style="display:inline;fill:#b3b3b3;stroke:#b3b3b3;stroke-width:.279804"/></g><g transform="translate(.715 .057)"><ellipse cx="6.615" cy="12.568" rx="4.053" ry="4.101" style="fill:gray;stroke:#000;stroke-width:.264583"/><path d="m7.42 15.846-1.536.055-.526-1.444 1.21-.947 1.275.859z" style="fill:#b3b3b3;stroke:#000;stroke-width:.228646" transform="matrix(.99905 .04363 -.05842 1.33777 .826 -5.795)"/><path d="m7.42 15.846-1.536.055-.526-1.444 1.21-.947 1.275.859z" style="fill:#b3b3b3;stroke:#000;stroke-width:.228646" transform="matrix(-.04363 .99905 -1.33777 -.05842 24.93 6.788)"/><path d="m7.42 15.846-1.536.055-.526-1.444 1.21-.947 1.275.859z" style="fill:#b3b3b3;stroke:#000;stroke-width:.228646" transform="matrix(.04363 -.99905 1.33777 .05842 -11.752 18.396)"/><path d="m7.42 15.846-1.536.055-.526-1.444 1.21-.947 1.275.859z" style="fill:#b3b3b3;stroke:#000;stroke-width:.228646" transform="matrix(-.99905 -.04363 .05842 -1.33777 12.45 30.952)"/><path d="m7.42 15.846-1.536.055-.526-1.444 1.21-.947 1.275.859z" style="fill:gray;stroke:gray;stroke-width:.228646" transform="matrix(.5579 .0258 -.03262 .79134 3.355 2.475)"/><path d="m7.42 15.846-1.536.055-.526-1.444 1.21-.947 1.275.859z" style="fill:gray;stroke:gray;stroke-width:.228646" transform="matrix(-.0258 .5579 -.79134 -.03262 16.694 9.324)"/><path d="m7.42 15.846-1.536.055-.526-1.444 1.21-.947 1.275.859z" style="fill:gray;stroke:gray;stroke-width:.228646" transform="matrix(.0258 -.5579 .79134 .03262 -3.524 15.868)"/><path d="m7.42 15.846-1.536.055-.526-1.444 1.21-.947 1.275.859z" style="fill:gray;stroke:gray;stroke-width:.228646" transform="matrix(.5579 -.0258 -.03262 -.79134 3.502 22.717)"/></g><path d="M13.304 7.715h6.704v4.556h-6.704z" style="display:inline;fill:gray;stroke:#000;stroke-width:.175089"/><g transform="translate(-1.058 .132)"><ellipse cx="27.252" cy="12.568" rx="4.053" ry="4.101" style="fill:gray;stroke:#000;stroke-width:.264583"/><circle cx="24.999" cy="12.568" r="1.191" style="fill:#5fb2ff;stroke:#000;stroke-width:.264583"/><ellipse cx="24.991" cy="12.574" rx=".881" ry=".856" style="fill:#003e7a;stroke:none;stroke-width:.264583"/><circle cx="27.252" cy="14.817" r="1.191" style="fill:#0f0;stroke:#000;stroke-width:.264583"/><ellipse cx="27.252" cy="14.817" rx=".881" ry=".856" style="fill:#288027;stroke:none;stroke-width:.264583"/><circle cx="29.49" cy="12.568" r="1.191" style="fill:#fc7f7f;stroke:#000;stroke-width:.264583"/><ellipse cx="29.487" cy="12.582" rx=".881" ry=".856" style="fill:red;stroke:none;stroke-width:.264583"/><circle cx="27.252" cy="10.29" r="1.191" style="fill:#f7f5cf;stroke:#000;stroke-width:.264583"/><ellipse cx="27.249" cy="10.286" rx=".881" ry=".856" style="fill:#ffe345;stroke:none;stroke-width:.264583"/></g><g transform="translate(-.624 .615)"><circle cx="11.962" cy="18.653" r="3.175" style="fill:gray;stroke:#000;stroke-width:.264583"/><ellipse cx="11.954" cy="18.653" rx="2.307" ry="2.334" style="fill:#b3b3b3;stroke:#000;stroke-width:.264583"/><ellipse cx="11.96" cy="18.63" rx="1.686" ry="1.713" style="fill:#010101;stroke:gray;stroke-width:.193778"/><ellipse cx="11.971" cy="18.629" rx="1.376" ry="1.391" style="fill:gray;stroke:#b3b3b3;stroke-width:.157699"/></g><g style="display:inline" transform="translate(-.052 .615)"><circle cx="22.158" cy="18.653" r="3.175" style="display:inline;fill:gray;stroke:#000;stroke-width:.264583"/><ellipse cx="22.158" cy="18.653" rx="2.307" ry="2.334" style="fill:#b3b3b3;stroke:#000;stroke-width:.264583"/><ellipse cx="22.143" cy="18.667" rx="1.686" ry="1.713" style="fill:#010101;stroke:gray;stroke-width:.193778"/><ellipse cx="22.154" cy="18.665" rx="1.376" ry="1.391" style="fill:gray;stroke:#b3b3b3;stroke-width:.157699"/></g><g style="display:inline;stroke-width:1.05101"><path d="m24.606 7.673.807-.132h.925l.914.132.794.264.529.265.794.53.386.367.408.426.264.265h.265l.264-.265.082-.198-.082-.331-.529-1.059-.53-.529-.793-.529-.987-.524-.865-.27-1.058-.264h-1.0590000000000002l-.793.264-.53.265-.529.53-.264.528v.265zM8.897 7.673 8.09 7.54h-.925l-.913.132-.794.264-.53.265-.793.53-.386.367-.408.426-.264.265h-.265l-.265-.265-.081-.198.081-.331.53-1.059.529-.529.793-.529.987-.524.866-.27 1.058-.264h1.0590000000000002l.793.264.53.265.528.53.265.528v.265z" style="fill:gray;stroke:#000;stroke-width:.27808" transform="matrix(.96534 0 0 .74577 .684 2)"/></g><g style="display:inline"><ellipse cx="-12.297" cy="9.206" rx="1.058" ry=".529" style="fill:gray;stroke:#000;stroke-width:.264583" transform="rotate(-104.814)"/><ellipse cx="2.547" cy="-23.314" rx="1.058" ry=".529" style="fill:gray;stroke:#000;stroke-width:.264583" transform="rotate(107.729)"/><ellipse cx="16.702" cy="16.271" rx="1.727" ry="1.661" style="fill:gray;stroke:#000;stroke-width:.264583"/><circle cx="16.685" cy="16.272" r=".794" style="fill:none;stroke:#e0e0e0;stroke-width:.264583"/><path d="M13.206 3.699h-.462l-.143-.44.374-.271.373.271z" style="fill:gray;stroke:gray;stroke-width:.264583" transform="translate(3.697 12.218)"/><path d="M16.657 15.218h.037v.836h-.037z" style="fill:none;stroke:#e0e0e0;stroke-width:.264583"/></g></svg>